<?xml version="1.0" encoding="UTF-8" standalone="no"?>
<svg
   xmlns:dc="http://purl.org/dc/elements/1.1/"
   xmlns:cc="http://creativecommons.org/ns#"
   xmlns:rdf="http://www.w3.org/1999/02/22-rdf-syntax-ns#"
   xmlns:svg="http://www.w3.org/2000/svg"
   xmlns="http://www.w3.org/2000/svg"
   xmlns:sodipodi="http://sodipodi.sourceforge.net/DTD/sodipodi-0.dtd"
   xmlns:inkscape="http://www.inkscape.org/namespaces/inkscape"
   version="1.1"
   id="svg2"
   xml:space="preserve"
   width="173.97333"
   height="202.29333"
   viewBox="0 0 173.97333 202.29333"
   sodipodi:docname="gr_geeks_logo.svg"
   inkscape:version="1.0.2-2 (e86c870879, 2021-01-15)"><metadata
     id="metadata8"><rdf:RDF><cc:Work
         rdf:about=""><dc:format>image/svg+xml</dc:format><dc:type
           rdf:resource="http://purl.org/dc/dcmitype/StillImage" /><dc:title /></cc:Work></rdf:RDF></metadata><defs
     id="defs6" /><sodipodi:namedview
     pagecolor="#ffffff"
     bordercolor="#666666"
     borderopacity="1"
     objecttolerance="10"
     gridtolerance="10"
     guidetolerance="10"
     inkscape:pageopacity="0"
     inkscape:pageshadow="2"
     inkscape:window-width="2540"
     inkscape:window-height="1352"
     id="namedview4"
     showgrid="false"
     inkscape:zoom="2.3332454"
     inkscape:cx="-239.28458"
     inkscape:cy="92.978914"
     inkscape:window-x="1273"
     inkscape:window-y="8"
     inkscape:window-maximized="0"
     inkscape:current-layer="g10"
     inkscape:document-rotation="0" /><g
     id="g10"
     inkscape:groupmode="layer"
     inkscape:label="ink_ext_XXXXXX"
     transform="matrix(1.3333333,0,0,-1.3333333,0,202.29333)"><path
       d="M 64.877,2 C 2,2 2,69.1238 2,69.1238 V 85.6016 H 128.48 V 69.1238 C 128.48,69.1238 127.754,2 64.877,2"
       style="fill:#ffffff;fill-opacity:1;fill-rule:nonzero;stroke:none;stroke-width:0.1"
       id="path14"
       inkscape:connector-curvature="0"
       inkscape:export-xdpi="23.728388"
       inkscape:export-ydpi="23.728388" /><path
       d="m 97.6727,149.717 v -30.87 h 30.7753 l -0.006,5.813 H 103.36 v 25.057 h -5.6873"
       style="fill:#176fc1;fill-opacity:1;fill-rule:evenodd;stroke:none;stroke-width:0.1"
       id="path16"
       inkscape:connector-curvature="0"
       inkscape:export-xdpi="23.728388"
       inkscape:export-ydpi="23.728388" /><path
       d="M 97.6727,117.221 97.6699,87.1016 h 5.6901 v 24.2804 l 25.12,10e-4 v 5.838 H 97.6727"
       style="fill:#fab20b;fill-opacity:1;fill-rule:evenodd;stroke:none;stroke-width:0.1"
       id="path18"
       inkscape:connector-curvature="0"
       inkscape:export-xdpi="23.728388"
       inkscape:export-ydpi="23.728388" /><path
       d="M 90.2344,124.66 H 65.9266 v -5.813 h 30.2461 v 30.87 H 90.2344 V 124.66"
       style="fill:#fab20b;fill-opacity:1;fill-rule:evenodd;stroke:none;stroke-width:0.1"
       id="path20"
       inkscape:connector-curvature="0"
       inkscape:export-xdpi="23.728388"
       inkscape:export-ydpi="23.728388" /><path
       d="m 65.9266,117.221 v -5.838 l 24.3078,-10e-4 V 87.1016 h 5.8125 V 117.221 H 65.9266"
       style="fill:#176fc1;fill-opacity:1;fill-rule:evenodd;stroke:none;stroke-width:0.1"
       id="path22"
       inkscape:connector-curvature="0"
       inkscape:export-xdpi="23.728388"
       inkscape:export-ydpi="23.728388" /><path
       d="M 65.9266,149.717 V 126.16 h 22.8078 v 23.557 H 65.9266"
       style="fill:#176fc1;fill-opacity:1;fill-rule:evenodd;stroke:none;stroke-width:0.1"
       id="path24"
       inkscape:connector-curvature="0"
       inkscape:export-xdpi="23.728388"
       inkscape:export-ydpi="23.728388" /><path
       d="M 104.86,149.717 V 126.16 h 23.557 v 23.557 H 104.86"
       style="fill:#fab20b;fill-opacity:1;fill-rule:evenodd;stroke:none;stroke-width:0.1"
       id="path26"
       inkscape:connector-curvature="0"
       inkscape:export-xdpi="23.728388"
       inkscape:export-ydpi="23.728388" /><path
       d="M 65.9266,109.884 V 87.1016 l 22.8078,-0.002 V 109.884 H 65.9266"
       style="fill:#fab20b;fill-opacity:1;fill-rule:evenodd;stroke:none;stroke-width:0.1"
       id="path28"
       inkscape:connector-curvature="0"
       inkscape:export-xdpi="23.728388"
       inkscape:export-ydpi="23.728388" /><path
       d="M 128.434,109.884 H 104.86 V 87.0996 l 23.62,0.002 -0.046,22.7824"
       style="fill:#176fc1;fill-opacity:1;fill-rule:evenodd;stroke:none;stroke-width:0.1"
       id="path30"
       inkscape:connector-curvature="0"
       inkscape:export-xdpi="23.728388"
       inkscape:export-ydpi="23.728388" /><path
       d="M 64.4266,87.1016 H 33.557 V 149.717 H 64.4266 V 87.1016"
       style="fill:#ffffff;fill-opacity:1;fill-rule:nonzero;stroke:none;stroke-width:0.1"
       id="path32"
       inkscape:connector-curvature="0"
       inkscape:export-xdpi="23.728388"
       inkscape:export-ydpi="23.728388" /><path
       d="m 58.030574,71.218196 c 0.245979,0.143408 1.132366,0.603025 1.530197,1.390413 0.759842,1.500127 1.30399,2.507031 4.486732,-1.002964 0.120616,-0.133318 -0.123773,1.557069 -0.574166,2.151386 -0.39138,0.515365 -0.329669,0.842473 0.22213,1.126833 0.732709,0.376951 3.334248,1.840812 3.973453,2.593684 1.4478,1.813429 2.886157,-1.312706 3.276873,-1.905171 0.120602,0.04906 0.242181,0.0974 0.362846,0.146571 -0.188843,0.750992 -0.377769,1.502288 -0.602931,2.400622 1.513672,0.475484 3.081028,0.947667 4.631162,1.470669 0.358554,0.121845 0.730458,0.354027 0.971139,0.640441 0.734285,0.87116 1.840651,0.838094 2.456161,-0.137744 0.219769,-0.349659 0.89297,-1.771284 1.405435,-2.115516 0.128212,0.642767 -0.79386,2.633472 0.540288,2.638262 1.072983,0.10783 2.148879,0.205242 3.212945,0.377268 0.406766,0.06617 0.834829,0.25443 1.164169,0.50338 0.994418,0.751742 1.939734,0.627929 2.517569,-0.460803 0.261925,-0.491715 0.39868,-1.055197 0.543423,-1.599772 0.109045,-0.412387 0.13839,-0.845594 0.203342,-1.269214 0.08777,-0.01139 0.173225,-0.02296 0.259493,-0.0338 0.288689,0.24884 0.54127,1.642278 0.389249,2.11437 6.902257,-1.0936 9.951856,-8.326236 7.262817,-10.090255 -1.18884,7.355444 -17.703837,9.439596 -34.400988,-2.392924 -0.251407,-0.157888 -0.699911,-0.33986 -0.516115,-0.852697 0.179377,-0.504124 0.764192,-1.199294 1.206009,-0.94542 0.889132,0.509218 2.457274,1.239229 2.716052,2.167904 0.247709,0.88951 1.116336,1.19714 2.150639,0.346794 0.630213,-0.625584 1.748798,-2.326661 1.748798,-2.326661 0,0 -0.540577,2.57363 0.654624,2.918262 0.789851,0.228368 2.438572,0.877245 2.697837,1.608821 0.346403,0.980352 1.722972,1.120807 2.338776,0.242431 0.526157,-0.751704 1.325952,-2.658344 1.325952,-2.658344 0,0 0.223748,2.505937 1.02425,2.695448 0.798866,0.189994 3.224169,0.436177 3.357174,0.695669 0.404785,0.791017 0.912805,1.08292 1.552973,0.873455 1.737253,-0.445344 2.070475,-3.592225 2.070475,-3.592225 0,0 -0.02524,2.694033 1.532787,2.470691 1.108114,-0.149783 2.90929,-0.934734 4.237479,-0.07045 0.776453,0.506424 1.82792,-0.521264 1.783123,-1.695745 -0.0247,-0.652744 -0.240034,-1.951903 -0.240034,-1.951903 0,0 0.716541,1.160363 1.202849,1.371104 8.41628,-5.487372 4.518249,-12.656323 3.50618,-11.933977 -0.28831,0.275355 1.880579,4.094496 -4.165171,7.546879 -4.230055,2.41599 -9.428185,2.099671 -14.521711,1.347911 C 72.940131,65.346316 66.189372,61.599008 65.197917,61.05938 64.20646,60.519755 63.706821,60.342414 61.702246,59.073182"
       style="fill:#000000;fill-opacity:1;fill-rule:nonzero;stroke:none;stroke-width:0.1"
       id="path40"
       inkscape:connector-curvature="0"
       sodipodi:nodetypes="cccccccccccccccccccccccccccccccccccccccccccczc"
       inkscape:export-xdpi="23.728388"
       inkscape:export-ydpi="23.728388" /><path
       d="M 128.48,69.1238 C 128.48,69.1238 127.754,2 64.877,2 2,2 2,69.1238 2,69.1238 V 85.6016 H 128.48 Z M 33.557,149.717 H 64.4266 V 87.1016 H 33.557 Z M 65.9266,109.884 H 88.7344 V 87.1016 H 65.9266 Z m 0,7.337 H 96.0469 V 87.1016 H 90.2344 V 111.382 H 65.9266 Z m 0,7.439 h 24.3078 v 25.057 h 5.9383 v -30.87 H 96.0469 65.9266 Z m 0,25.057 H 88.7344 V 126.16 H 65.9266 Z M 104.86,109.884 h 23.574 l 0.046,-22.7824 h -23.62 z m -7.1873,7.337 v 0 h 30.7763 l 0.007,-5.839 H 103.36 V 87.1016 h -5.6873 z m 0,32.496 H 103.36 V 124.66 h 25.082 l 0.006,-5.813 H 97.6727 Z m 7.1873,0 h 23.557 V 126.16 H 104.86 Z M 0,151.717 V 69.1238 C 0,68.4211 0.0917969,51.702 8.04883,34.7141 15.4656,18.877 31.3457,0 64.877,0 c 33.5214,0 49.599,18.868 57.183,34.6969 8.14,16.9859 8.413,33.7023 8.419,34.4054 l 10e-4,82.6147 H 0"
       style="fill:#231f20;fill-opacity:1;fill-rule:nonzero;stroke:none;stroke-width:0.1"
       id="path64"
       inkscape:connector-curvature="0"
       inkscape:export-xdpi="23.728388"
       inkscape:export-ydpi="23.728388" /><g
       id="g859"
       style="fill:#000000"
       transform="matrix(1.8,0,0,-1.8,33.595487,70.165712)"
       inkscape:export-xdpi="23.728388"
       inkscape:export-ydpi="23.728388"><rect
         fill="none"
         height="20"
         width="20"
         x="0"
         id="rect857"
         y="0" /></g><g
       id="g948"
       transform="matrix(0.80781208,0,0,0.80781208,9.4468259,12.532594)"
       inkscape:export-xdpi="23.728388"
       inkscape:export-ydpi="23.728388"><path
         d="m 80.813086,15.869495 13.401359,26.521284 c 2.32805,4.724381 0.729545,10.366453 -3.777984,13.154324 L 62.065563,73.092288 c -4.507524,2.787871 -10.421565,1.79225 -13.737992,-2.26039 L 29.446476,47.699787 c -2.627706,-3.088627 -1.881782,-7.659482 1.520959,-9.764051 1.502508,-0.92929 3.353148,-1.227821 5.086293,-0.849346 l 11.742925,2.527382 17.676576,-10.932828 2.61929,-11.410303 c 0.388045,-1.690417 1.45404,-3.195801 2.956546,-4.12509 3.446932,-2.1319 8.003973,-0.840891 9.764021,2.723944 z"
         id="path861"
         style="fill:#000000;stroke-width:5.16785"
         sodipodi:nodetypes="ccssccscccssc" /><polygon
         points="7.5,8 7.5,9.25 6.25,9.25 6.25,9.75 7.5,9.75 7.5,11 8,11 8,9.75 9.25,9.75 9.25,9.25 8,9.25 8,8 "
         id="polygon863"
         style="fill:#ff0000"
         transform="matrix(4.4191433,-2.7332067,-2.8022964,-4.3101908,48.873358,117.51191)" /><ellipse
         cx="41.866322"
         cy="-71.699944"
         id="circle865"
         style="fill:#ff0000;stroke-width:5.1685"
         transform="matrix(0.8504764,-0.52601321,-0.54508031,-0.83838384,0,0)"
         rx="2.5980399"
         ry="2.5705352" /><ellipse
         cx="36.67025"
         cy="-81.982071"
         id="circle867"
         style="fill:#ff0000;stroke-width:5.1685"
         transform="matrix(0.8504764,-0.52601321,-0.54508031,-0.83838384,0,0)"
         rx="2.5980399"
         ry="2.5705352" /></g></g></svg>
